<?xml version="1.0" encoding="utf-8"?>
<!-- Generator: Adobe Illustrator 16.0.0, SVG Export Plug-In . SVG Version: 6.00 Build 0)  -->
<!DOCTYPE svg PUBLIC "-//W3C//DTD SVG 1.1//EN" "http://www.w3.org/Graphics/SVG/1.1/DTD/svg11.dtd">
<svg version="1.1" id="Layer_1" xmlns="http://www.w3.org/2000/svg" xmlns:xlink="http://www.w3.org/1999/xlink" x="0px" y="0px"
	 width="934.415px" height="572.916px" viewBox="0 0 934.415 572.916" enable-background="new 0 0 934.415 572.916"
	 xml:space="preserve">
<path fill="#ABDEE2" d="M52.238,572.916l297.97-1.548l79.425-0.023l26.313-0.01l79.577-0.023l363.557-0.1
	c0,0,83.156-106.632-5.669-207.908c-92.096-105.005-136.876-19.488-165.186-167.296C656.969-176.043-47.541,40.499,137.247,357.101
	C203.783,471.099,6.276,410.507,52.238,572.916z"/>
<g>
	<path fill="#333333" d="M262.71,246.789h197.024c8.579,0,15.532,6.954,15.532,15.533v288.02c0,8.579-6.953,15.533-15.532,15.533
		H262.71c-8.578,0-15.533-6.954-15.533-15.533v-288.02C247.177,253.743,254.132,246.789,262.71,246.789z"/>
	<rect x="267.715" y="273.034" fill="#3CB4C5" width="189.165" height="48.677"/>
	<polygon opacity="0.5" fill="#3CB4C5" points="272.734,280.041 456.88,280.041 456.88,273.034 267.715,273.034 267.715,321.711 
		272.734,321.711 	"/>
	<path fill="#E87C50" d="M315.198,353.133h-40.688c-3.753,0-6.795-3.042-6.795-6.795v-3.945c0-3.753,3.042-6.796,6.795-6.796h40.688
		c3.753,0,6.795,3.043,6.795,6.796v3.945C321.994,350.091,318.951,353.133,315.198,353.133z"/>
	<path fill="#E87C50" d="M382.642,353.133h-40.688c-3.753,0-6.795-3.042-6.795-6.795v-3.945c0-3.753,3.042-6.796,6.795-6.796h40.688
		c3.753,0,6.795,3.043,6.795,6.796v3.945C389.437,350.091,386.395,353.133,382.642,353.133z"/>
	<path fill="#E87C50" d="M450.085,353.133h-40.688c-3.753,0-6.796-3.042-6.796-6.795v-3.945c0-3.753,3.043-6.796,6.796-6.796h40.688
		c3.753,0,6.795,3.043,6.795,6.796v3.945C456.88,350.091,453.838,353.133,450.085,353.133z"/>
	<path fill="#D1E3F5" d="M300.209,406.332h-22.981c-5.253,0-9.512-4.259-9.512-9.512v-20.29c0-5.253,4.259-9.512,9.512-9.512h22.981
		c5.253,0,9.512,4.259,9.512,9.512v20.29C309.721,402.073,305.462,406.332,300.209,406.332z"/>
	<path fill="#D1E3F5" d="M349.262,406.332H326.28c-5.253,0-9.512-4.259-9.512-9.512v-20.29c0-5.253,4.259-9.512,9.512-9.512h22.981
		c5.254,0,9.512,4.259,9.512,9.512v20.29C358.773,402.073,354.516,406.332,349.262,406.332z"/>
	<path fill="#D1E3F5" d="M398.315,406.332h-22.981c-5.254,0-9.512-4.259-9.512-9.512v-20.29c0-5.253,4.258-9.512,9.512-9.512h22.981
		c5.253,0,9.512,4.259,9.512,9.512v20.29C407.827,402.073,403.568,406.332,398.315,406.332z"/>
	<path fill="#D1E3F5" d="M300.209,454.798h-22.981c-5.253,0-9.512-4.259-9.512-9.512v-20.29c0-5.253,4.259-9.512,9.512-9.512h22.981
		c5.253,0,9.512,4.259,9.512,9.512v20.29C309.721,450.539,305.462,454.798,300.209,454.798z"/>
	<path fill="#D1E3F5" d="M349.262,454.798H326.28c-5.253,0-9.512-4.259-9.512-9.512v-20.29c0-5.253,4.259-9.512,9.512-9.512h22.981
		c5.254,0,9.512,4.259,9.512,9.512v20.29C358.773,450.539,354.516,454.798,349.262,454.798z"/>
	<path fill="#D1E3F5" d="M398.315,454.798h-22.981c-5.254,0-9.512-4.259-9.512-9.512v-20.29c0-5.253,4.258-9.512,9.512-9.512h22.981
		c5.253,0,9.512,4.259,9.512,9.512v20.29C407.827,450.539,403.568,454.798,398.315,454.798z"/>
	<path fill="#FCB138" d="M448.322,367.019h-24.89c-4.726,0-8.558,3.831-8.558,8.558v12.168v10.03v48.466
		c0,4.727,3.832,8.558,8.558,8.558h24.89c4.727,0,8.558-3.831,8.558-8.558v-48.466v-10.03v-12.168
		C456.88,370.85,453.049,367.019,448.322,367.019z"/>
	<path fill="#D1E3F5" d="M300.209,503.264h-22.981c-5.253,0-9.512-4.259-9.512-9.512v-20.29c0-5.253,4.259-9.512,9.512-9.512h22.981
		c5.253,0,9.512,4.259,9.512,9.512v20.29C309.721,499.005,305.462,503.264,300.209,503.264z"/>
	<path fill="#D1E3F5" d="M349.262,503.264H326.28c-5.253,0-9.512-4.259-9.512-9.512v-20.29c0-5.253,4.259-9.512,9.512-9.512h22.981
		c5.254,0,9.512,4.259,9.512,9.512v20.29C358.773,499.005,354.516,503.264,349.262,503.264z"/>
	<path fill="#D1E3F5" d="M398.315,503.264h-22.981c-5.254,0-9.512-4.259-9.512-9.512v-20.29c0-5.253,4.258-9.512,9.512-9.512h22.981
		c5.253,0,9.512,4.259,9.512,9.512v20.29C407.827,499.005,403.568,503.264,398.315,503.264z"/>
	<path fill="#FCB138" d="M447.368,503.264h-22.981c-5.254,0-9.512-4.259-9.512-9.512v-20.29c0-5.253,4.258-9.512,9.512-9.512h22.981
		c5.253,0,9.512,4.259,9.512,9.512v20.29C456.88,499.005,452.621,503.264,447.368,503.264z"/>
	<path fill="#D1E3F5" d="M300.209,551.729h-22.981c-5.253,0-9.512-4.259-9.512-9.512v-20.289c0-5.254,4.259-9.513,9.512-9.513
		h22.981c5.253,0,9.512,4.259,9.512,9.513v20.289C309.721,547.471,305.462,551.729,300.209,551.729z"/>
	<path fill="#D1E3F5" d="M349.262,551.729H326.28c-5.253,0-9.512-4.259-9.512-9.512v-20.289c0-5.254,4.259-9.513,9.512-9.513h22.981
		c5.254,0,9.512,4.259,9.512,9.513v20.289C358.773,547.471,354.516,551.729,349.262,551.729z"/>
	<path fill="#FCB138" d="M398.315,551.729h-22.981c-5.254,0-9.512-4.259-9.512-9.512v-20.289c0-5.254,4.258-9.513,9.512-9.513
		h22.981c5.253,0,9.512,4.259,9.512,9.513v20.289C407.827,547.471,403.568,551.729,398.315,551.729z"/>
	<path fill="#E87C50" d="M447.368,551.729h-22.981c-5.254,0-9.512-4.259-9.512-9.512v-20.289c0-5.254,4.258-9.513,9.512-9.513
		h22.981c5.253,0,9.512,4.259,9.512,9.513v20.289C456.88,547.471,452.621,551.729,447.368,551.729z"/>
	<g>
		<path fill="#FFFFFF" d="M295.909,473.277v1.987l-9.698,20.286h-3.118l9.663-19.703v-0.068H281.86v-2.502H295.909z"/>
	</g>
	<g>
		<path fill="#FFFFFF" d="M330.417,489.896c0-2.81,1.679-4.797,4.42-5.962l-0.034-0.103c-2.468-1.166-3.529-3.084-3.529-5.003
			c0-3.529,2.98-5.929,6.887-5.929c4.317,0,6.477,2.707,6.477,5.483c0,1.884-0.925,3.906-3.666,5.208v0.103
			c2.775,1.097,4.488,3.05,4.488,5.757c0,3.872-3.323,6.477-7.573,6.477C333.227,495.928,330.417,493.152,330.417,489.896z
			 M342.41,489.76c0-2.707-1.885-4.009-4.9-4.865c-2.604,0.753-4.009,2.467-4.009,4.591c-0.103,2.262,1.61,4.249,4.455,4.249
			C340.662,493.734,342.41,492.056,342.41,489.76z M334.118,478.623c0,2.228,1.679,3.427,4.249,4.112
			c1.919-0.651,3.393-2.021,3.393-4.043c0-1.782-1.063-3.633-3.77-3.633C335.489,475.06,334.118,476.704,334.118,478.623z"/>
	</g>
	<g>
		<path fill="#FFFFFF" d="M345.494,532.045c0,7.572-2.81,11.753-7.744,11.753c-4.352,0-7.298-4.078-7.367-11.445
			c0-7.47,3.221-11.581,7.744-11.581C342.822,520.771,345.494,524.951,345.494,532.045z M333.398,532.388
			c0,5.79,1.782,9.08,4.523,9.08c3.084,0,4.557-3.598,4.557-9.286c0-5.482-1.404-9.08-4.522-9.08
			C335.317,523.102,333.398,526.322,333.398,532.388z"/>
	</g>
	<g>
		<path fill="#FFFFFF" d="M382.197,493.426c0.65,0.069,1.404,0,2.432-0.103c1.748-0.239,3.393-0.959,4.66-2.158
			c1.475-1.337,2.536-3.29,2.947-5.929h-0.103c-1.233,1.508-3.016,2.399-5.243,2.399c-4.009,0-6.578-3.016-6.578-6.819
			c0-4.215,3.049-7.916,7.606-7.916s7.367,3.701,7.367,9.39c0,4.899-1.645,8.326-3.837,10.451c-1.715,1.679-4.078,2.707-6.477,2.98
			c-1.098,0.172-2.057,0.206-2.775,0.172V493.426z M383.293,480.61c0,2.775,1.68,4.729,4.283,4.729c2.021,0,3.598-0.993,4.387-2.33
			c0.171-0.273,0.273-0.616,0.273-1.096c0-3.804-1.404-6.717-4.557-6.717C385.109,475.196,383.293,477.458,383.293,480.61z"/>
	</g>
	<g>
		<path fill="#FFFFFF" d="M290.769,446.136v-6.064h-10.348v-1.987l9.937-14.221h3.255v13.844h3.118v2.364h-3.118v6.064H290.769z
			 M290.769,437.707v-7.437c0-1.165,0.035-2.33,0.103-3.495h-0.103c-0.685,1.303-1.233,2.262-1.85,3.29l-5.448,7.572v0.069H290.769z
			"/>
	</g>
	<g>
		<path fill="#FFFFFF" d="M343.986,426.398h-8.498l-0.856,5.723c0.514-0.068,0.993-0.137,1.816-0.137
			c1.713,0,3.427,0.377,4.798,1.199c1.747,0.993,3.187,2.912,3.187,5.722c0,4.353-3.461,7.607-8.293,7.607
			c-2.433,0-4.488-0.685-5.551-1.37l0.753-2.296c0.925,0.548,2.742,1.233,4.763,1.233c2.844,0,5.277-1.851,5.277-4.832
			c-0.035-2.878-1.953-4.934-6.408-4.934c-1.268,0-2.261,0.137-3.083,0.239l1.439-10.69h10.656V426.398z"/>
	</g>
	<g>
		<path fill="#FFFFFF" d="M393.162,425.987c-0.617-0.034-1.405,0-2.262,0.138c-4.729,0.788-7.23,4.249-7.744,7.915h0.103
			c1.063-1.404,2.913-2.57,5.38-2.57c3.94,0,6.717,2.845,6.717,7.196c0,4.077-2.776,7.847-7.402,7.847
			c-4.763,0-7.881-3.7-7.881-9.491c0-4.386,1.576-7.847,3.77-10.04c1.85-1.816,4.317-2.947,7.127-3.29
			c0.891-0.137,1.645-0.171,2.193-0.171V425.987z M392.305,438.837c0-3.187-1.816-5.105-4.592-5.105
			c-1.816,0-3.494,1.131-4.316,2.742c-0.206,0.342-0.343,0.787-0.343,1.336c0.067,3.666,1.747,6.373,4.899,6.373
			C390.558,444.183,392.305,442.023,392.305,438.837z"/>
	</g>
	<g>
		<path fill="#FFFFFF" d="M287.993,379.317h-0.068l-3.872,2.09l-0.583-2.295l4.866-2.604h2.57v22.272h-2.913V379.317z"/>
	</g>
	<g>
		<path fill="#FFFFFF" d="M330.691,398.78v-1.85l2.364-2.297c5.688-5.413,8.259-8.292,8.292-11.65c0-2.261-1.096-4.352-4.419-4.352
			c-2.022,0-3.701,1.028-4.729,1.885l-0.959-2.125c1.542-1.302,3.735-2.262,6.305-2.262c4.797,0,6.818,3.29,6.818,6.477
			c0,4.112-2.98,7.437-7.675,11.959l-1.782,1.646v0.068h10.006v2.501H330.691z"/>
	</g>
	<g>
		<path fill="#FFFFFF" d="M381.168,395.319c0.857,0.549,2.845,1.405,4.935,1.405c3.872,0,5.071-2.468,5.037-4.317
			c-0.034-3.119-2.844-4.455-5.757-4.455h-1.678v-2.262h1.678c2.193,0,4.969-1.131,4.969-3.769c0-1.782-1.131-3.358-3.906-3.358
			c-1.781,0-3.495,0.788-4.454,1.474l-0.788-2.193c1.165-0.856,3.426-1.714,5.824-1.714c4.387,0,6.374,2.604,6.374,5.313
			c0,2.296-1.37,4.248-4.112,5.242v0.068c2.742,0.549,4.969,2.604,4.969,5.723c0,3.563-2.775,6.682-8.121,6.682
			c-2.501,0-4.693-0.788-5.791-1.508L381.168,395.319z"/>
	</g>
	<g>
		<circle fill="#FFFFFF" cx="288.718" cy="540.484" r="2.686"/>
	</g>
	<g>
		<polygon fill="#FFFFFF" points="451.834,412.326 437.695,412.326 437.695,398.188 434.061,398.188 434.061,412.326 
			419.921,412.326 419.921,415.962 434.061,415.962 434.061,430.101 437.695,430.101 437.695,415.962 451.834,415.962 		"/>
	</g>
	<g>
		<polygon fill="#FFFFFF" points="396.234,540.441 388.75,532.956 396.234,525.471 394.311,523.546 386.824,531.031 
			379.339,523.546 377.414,525.471 384.899,532.956 377.414,540.441 379.339,542.366 386.824,534.881 394.311,542.366 		"/>
	</g>
	<g>
		<rect x="423.165" y="482.835" fill="#FFFFFF" width="23.678" height="3.626"/>
	</g>
	<g>
		<rect x="424.039" y="524.742" fill="#FFFFFF" width="23.678" height="3.626"/>
	</g>
	<g>
		<rect x="424.039" y="533.87" fill="#FFFFFF" width="23.678" height="3.626"/>
	</g>
	<polygon fill="#FAC0BC" points="358.074,288.562 358.074,291.661 365.078,293.49 365.273,286.655 	"/>
	<path fill="#FAC0BC" d="M373.969,287.918v3.695c0,0,6.729,2.019,6.705,2.034s0.549-6.063,0.549-6.063L373.969,287.918z"/>
	<path fill="#1F1D57" d="M332.715,144.533l-1.285,8.059l-2.714-10.745c0,0,3.805-1.846,3.973-1.174
		C332.856,141.344,332.715,144.533,332.715,144.533z"/>
	<polygon fill="#FAC0BC" points="311.119,161.878 309.944,175.81 322.238,175.222 320.82,162.885 	"/>
	<path fill="#F69794" d="M321.495,168.752l-0.674-5.867l-9.701-1.007l-0.407,4.824C312.641,168.624,316.11,170.616,321.495,168.752z
		"/>
	<g>
		
			<ellipse transform="matrix(-0.9004 -0.4351 0.4351 -0.9004 562.6683 435.9624)" fill="#F69794" cx="331.247" cy="153.562" rx="2.46" ry="3.074"/>
		<path fill="#FAC0BC" d="M328,161.644c0.433-0.652,0.809-1.35,1.121-2.084c0.88-1.972,1.395-4.091,1.695-5.949
			c0.064-0.398,0.152-0.793,0.247-1.186c0.382-1.585,0.484-3.285,0.219-5.057c-0.854-5.701-5.44-10.246-11.15-11.035
			c-7.692-1.063-14.469,4.633-14.947,12.176c-0.792-0.508-1.706-0.672-2.54-0.36c-1.6,0.597-2.292,2.7-1.547,4.7
			c0.746,2,2.647,3.138,4.247,2.541c0.222-0.082,0.425-0.197,0.61-0.334c0.247,6.461,5.192,11.749,11.506,12.045
			c3.088,0.145,5.96-0.932,8.191-2.818c0.148-0.107,0.305-0.236,0.47-0.387C326.846,163.235,327.466,162.47,328,161.644z"/>
		<path fill="#F69794" d="M321.241,149.398c0.025,0.753,0.031,1.487,0.07,2.206c0.047,0.704,0.124,1.457,0.406,1.953l0.056,0.078
			c0.021,0.029,0.026,0.045,0.07,0.099c0.067,0.095,0.148,0.174,0.198,0.283c0.114,0.205,0.193,0.444,0.197,0.69
			c0.017,0.498-0.246,0.943-0.573,1.215c-0.671,0.564-1.541,0.619-2.261,0.441c0.734-0.13,1.438-0.383,1.848-0.861
			c0.19-0.238,0.315-0.506,0.271-0.755c-0.014-0.123-0.056-0.244-0.128-0.356c-0.025-0.061-0.084-0.11-0.122-0.167l-0.094-0.125
			l-0.105-0.146c-0.235-0.401-0.311-0.809-0.355-1.201c-0.037-0.395-0.031-0.778,0.005-1.158
			C320.796,150.838,320.958,150.1,321.241,149.398z"/>
		<circle fill="#333333" cx="315.738" cy="150.34" r="1.147"/>
		<circle fill="#333333" cx="325.544" cy="151.445" r="1.147"/>
		<path fill="#F69794" d="M314.959,158.157c0.301,0.262,0.615,0.504,0.947,0.719c0.328,0.221,0.668,0.421,1.021,0.592
			c0.706,0.341,1.454,0.59,2.225,0.684c0.771,0.098,1.555,0.029,2.31-0.17c0.753-0.212,1.47-0.559,2.149-0.977
			c-0.306,0.257-0.633,0.49-0.979,0.695c-0.347,0.205-0.721,0.362-1.102,0.502c-0.385,0.129-0.785,0.217-1.191,0.26
			c-0.407,0.038-0.817,0.033-1.223-0.012c-0.811-0.105-1.594-0.377-2.296-0.779C316.12,159.271,315.475,158.769,314.959,158.157z"/>
		<path fill="#1F1D57" d="M318.322,147.804c-0.583-0.181-1.133-0.318-1.677-0.402c-0.542-0.084-1.074-0.099-1.592-0.035
			c-0.515,0.068-1.034,0.18-1.532,0.406c-0.264,0.082-0.495,0.238-0.763,0.351c-0.258,0.128-0.497,0.292-0.786,0.419
			c0.145-0.266,0.313-0.526,0.509-0.766c0.216-0.215,0.423-0.459,0.693-0.624c0.504-0.384,1.138-0.604,1.777-0.684
			c0.643-0.077,1.3,0.017,1.884,0.251C317.416,146.958,317.948,147.312,318.322,147.804z"/>
		<path fill="#1F1D57" d="M323.374,148.372c0.463-0.409,1.053-0.653,1.669-0.774c0.618-0.116,1.281-0.081,1.897,0.12
			c0.611,0.202,1.19,0.541,1.61,1.016c0.233,0.214,0.389,0.493,0.559,0.747c0.146,0.272,0.261,0.56,0.351,0.849
			c-0.259-0.18-0.461-0.387-0.69-0.563c-0.241-0.162-0.437-0.361-0.68-0.492c-0.444-0.319-0.932-0.528-1.423-0.696
			c-0.497-0.163-1.021-0.251-1.569-0.274C324.547,148.28,323.981,148.309,323.374,148.372z"/>
	</g>
	<path fill="#E13369" d="M317.889,227.229c0,0-2.563,17.392,14.24,20.421c16.803,3.03,37.711,2.127,37.711,2.127l2.909,39.948
		l8.772,0.448c0,0,22.588-55.507-8.678-64.185l-28.098,0.139l-11.569-0.827c0,0-11.707-2.892-11.845-2.341
		S318.164,227.505,317.889,227.229z"/>
	<path fill="#F05C7E" d="M302.446,227.321c0,0-2.563,17.391,14.24,20.421c16.804,3.03,37.71,2.126,37.71,2.126l2.91,39.949
		l8.772,0.448c0,0,22.589-55.507-8.677-64.185l-28.098,0.139l-11.57-0.827c0,0-11.707-2.892-11.845-2.341
		S302.722,227.597,302.446,227.321z"/>
	<path fill="#333333" d="M323.611,170.253c0,0,11.569,1.47,14.508,3.857c2.938,2.387,17.079,37.463,17.079,37.463l-11.753,13.773
		l-24.976,0.184c0,0-18.732,10.101-30.485,0.552c-11.753-9.55-5.693-42.79,1.102-49.952c6.795-7.162,18.916-6.979,18.916-6.979
		S319.02,176.864,323.611,170.253z"/>
	<path fill="#FFFFFF" d="M301.207,187.7c0.414,1.911,0.667,3.852,0.847,5.799c0.1,0.973,0.143,1.95,0.199,2.928
		c0.029,0.978,0.052,1.957,0.039,2.937c-0.039,1.958-0.146,3.923-0.482,5.861c-0.329,1.932-0.807,3.869-1.705,5.614
		c0.604-1.861,0.904-3.775,1.121-5.693c0.213-1.92,0.287-3.857,0.312-5.793c0.04-1.936-0.007-3.876-0.069-5.817
		C301.399,191.594,301.311,189.651,301.207,187.7z"/>
	<path fill="#FFFFFF" d="M335.824,186.415c0.529,2.844,1.088,5.679,1.657,8.508c0.582,2.828,1.182,5.648,1.867,8.448
		c0.676,2.801,1.428,5.583,2.338,8.311c0.455,1.363,0.963,2.708,1.56,4.015c0.589,1.309,1.285,2.574,2.22,3.682
		c-1.063-0.992-1.845-2.25-2.551-3.518c-0.686-1.285-1.275-2.619-1.784-3.98c-0.52-1.357-0.966-2.74-1.388-4.129
		c-0.408-1.393-0.781-2.795-1.129-4.201c-0.332-1.412-0.649-2.826-0.936-4.246c-0.275-1.422-0.547-2.844-0.774-4.274
		C336.431,192.173,336.063,189.3,335.824,186.415z"/>
	<path fill="#FAC0BC" d="M341.637,217.409c-0.072-0.582-4.486-1.23-6.109-1.314c-1.229-0.064-9.377-0.336-12.149-0.461l0.204,0.713
		l-0.042,3.146l-0.455,2.086c2.432,0.153,8.376,0.387,9.614,0.632c1.653,0.326,4.521,1.573,4.521,1.573s1.193-0.271-0.323-0.925
		c-1.217-0.525-2.071-1.34-2.433-1.743c-0.208-0.232,0.017-0.647,0.168-0.607c4.126,1.081,4.551,1.26,4.551,1.26
		s4.851-0.027,0.027-1.117c-2.891-0.653-3.927-1.033-4.185-1.357c-0.109-0.139,0.086-0.607,0.263-0.619
		c2.504-0.154,7,0.733,5.769,0.151c-1.004-0.476-4.167-0.995-5.396-1.191c-0.075-0.013-0.197-0.471,0.138-0.498
		C338.186,216.938,341.705,217.948,341.637,217.409z"/>
	<path fill="#FFFFFF" d="M298.383,210.356c1.016,0.248,2.018,0.531,3.038,0.744c1.012,0.242,2.04,0.418,3.057,0.633
		c2.047,0.373,4.101,0.698,6.161,0.987c2.062,0.271,4.127,0.52,6.197,0.72c2.063,0.204,4.16,0.38,6.201,0.494l0.275,0.016
		l0.061,0.237c0.175,0.692,0.29,1.368,0.376,2.06c0.086,0.689,0.123,1.385,0.122,2.08c-0.005,0.696-0.065,1.393-0.18,2.082
		c-0.127,0.688-0.33,1.363-0.604,2.009l-0.024,0.056l-0.044,0.03l-2.269,1.521c-0.755,0.508-1.514,1.012-2.28,1.505
		c0.711-0.569,1.429-1.129,2.15-1.686l2.162-1.669l-0.068,0.086c0.227-0.624,0.388-1.271,0.475-1.931
		c0.08-0.661,0.117-1.328,0.097-1.998c-0.022-0.668-0.088-1.336-0.182-1.999c-0.097-0.659-0.228-1.329-0.401-1.956l0.334,0.253
		c-1.079-0.028-2.101-0.099-3.15-0.175c-1.043-0.076-2.085-0.159-3.125-0.27c-2.08-0.215-4.156-0.474-6.222-0.804
		c-2.065-0.333-4.119-0.736-6.155-1.218c-1.014-0.258-2.029-0.508-3.028-0.823C300.352,211.06,299.366,210.706,298.383,210.356z"/>
	<path fill="#8FCFD5" d="M393.885,194.036h-45.178l-12.809,31.265h-15.593c-0.608,0-1.119,0.597-1.102,1.103
		c0.02,0.607,0.493,1.102,1.102,1.102h58.566L393.885,194.036z"/>
	
		<ellipse transform="matrix(0.9806 0.1962 -0.1962 0.9806 48.6551 -68.3476)" fill="#DAEEF7" cx="369.371" cy="211.455" rx="2.153" ry="2.46"/>
	<path fill="#1F1D57" d="M332.962,136.908c0,0,3.857,0.124-0.191-3.138c-4.048-3.261-14.915-7.086-21.88-3.407
		c0,0-1.393-2.962-3.406-2.254c-2.014,0.707,1.309,2.744,1.309,2.744s-2.571-0.083-3.356,1.179c-0.58,0.932,0.994,0.973,1.855,0.932
		c-1.464,0.248-7.076,3.793-4.259,15.107c1.001-0.22,6.706-8.492,6.706-8.492s13.045,7.248,11.755,1.484
		c0,0,13.515,8.435,11.598,1.468C333.092,142.531,338.318,142.914,332.962,136.908z"/>
	<path fill="#1F1D57" d="M303.022,148.14c0,0,1.081-0.38,2.242,0.542c1.162,0.922,1.033,4.161,1.033,4.161s5.546,3.576,4.961-11.555
		c-0.622-16.098-4.626,1.291-4.626,1.291L303.022,148.14z"/>
	<g>
		<path fill="#FFFFFF" d="M385.119,303.278l-14.635-5.655c-0.365-0.142-0.547-0.552-0.405-0.917l0.109-0.283
			c0.142-0.365,0.552-0.547,0.917-0.406l14.635,5.655c0.365,0.142,0.547,0.552,0.406,0.917l-0.109,0.283
			C385.895,303.237,385.484,303.419,385.119,303.278z"/>
		<path fill="#333333" d="M373.061,291.165l-2.256,4.262c-0.277,0.525-0.162,1.145,0.242,1.301l14.062,5.435
			c0.365,0.141,0.814,0.053,1.172-0.302c0.366-0.363,0.661-1.01,0.376-2.144c-0.571-2.267-4.539-4.299-5.977-6.6l-6.549-2.531
			C373.765,290.444,373.312,290.689,373.061,291.165z"/>
		<g>
			<path fill="#FFFFFF" d="M378.684,295.326L378.684,295.326c-0.077-0.102-0.049-0.287,0.061-0.395
				c0.514-0.505,1.951-1.662,3.59-0.677c0.094,0.057,0.111,0.218,0.039,0.351l-0.002,0.004c-0.068,0.128-0.193,0.181-0.285,0.126
				c-1.471-0.876-2.711,0.153-3.133,0.58C378.863,295.406,378.748,295.411,378.684,295.326z"/>
		</g>
		<g>
			<path fill="#FFFFFF" d="M379.922,296.466L379.922,296.466c-0.077-0.102-0.049-0.287,0.061-0.396
				c0.513-0.505,1.951-1.661,3.59-0.677c0.094,0.057,0.111,0.219,0.039,0.351l-0.002,0.004c-0.068,0.129-0.193,0.182-0.285,0.127
				c-1.471-0.877-2.711,0.152-3.133,0.579C380.102,296.545,379.986,296.55,379.922,296.466z"/>
		</g>
		<g>
			<path fill="#FFFFFF" d="M381.073,297.527L381.073,297.527c-0.077-0.103-0.049-0.288,0.061-0.396
				c0.513-0.505,1.951-1.661,3.589-0.677c0.095,0.057,0.111,0.218,0.04,0.351l-0.002,0.004c-0.069,0.128-0.194,0.181-0.286,0.126
				c-1.47-0.876-2.711,0.153-3.133,0.58C381.252,297.606,381.137,297.611,381.073,297.527z"/>
		</g>
		<path opacity="0.3" fill="#E87C50" d="M374.8,298.179c0.286-4.036-1.47-5.174-2.544-5.493l-1.451,2.741
			c-0.277,0.525-0.162,1.145,0.242,1.301L374.8,298.179z"/>
	</g>
	<g>
		<path fill="#FFFFFF" d="M370.215,303.317l-14.994-4.621c-0.373-0.115-0.583-0.513-0.468-0.887l0.089-0.29
			c0.115-0.374,0.513-0.584,0.887-0.469l14.993,4.621c0.374,0.115,0.584,0.513,0.469,0.887l-0.089,0.29
			C370.986,303.223,370.589,303.433,370.215,303.317z"/>
		<path fill="#333333" d="M357.34,292.074l-1.951,4.409c-0.241,0.544-0.084,1.153,0.331,1.281l14.406,4.44
			c0.374,0.115,0.815-0.005,1.147-0.383c0.341-0.389,0.59-1.054,0.227-2.165c-0.729-2.221-4.829-3.972-6.422-6.167l-6.711-2.068
			C357.992,291.307,357.558,291.583,357.34,292.074z"/>
		<g>
			<path fill="#FFFFFF" d="M363.24,295.834L363.24,295.834c-0.084-0.097-0.068-0.283,0.033-0.398c0.477-0.54,1.83-1.794,3.533-0.926
				c0.098,0.051,0.126,0.21,0.064,0.347l-0.002,0.005c-0.06,0.132-0.182,0.194-0.277,0.146c-1.526-0.771-2.693,0.342-3.084,0.797
				C363.425,295.9,363.311,295.913,363.24,295.834z"/>
		</g>
		<g>
			<path fill="#FFFFFF" d="M364.555,296.884L364.555,296.884c-0.084-0.097-0.068-0.283,0.033-0.398
				c0.477-0.539,1.83-1.793,3.533-0.925c0.098,0.05,0.126,0.209,0.064,0.347l-0.002,0.004c-0.06,0.133-0.181,0.194-0.276,0.146
				c-1.527-0.772-2.694,0.341-3.085,0.796C364.739,296.95,364.625,296.964,364.555,296.884z"/>
		</g>
		<g>
			<path fill="#FFFFFF" d="M365.777,297.862L365.777,297.862c-0.084-0.096-0.068-0.283,0.033-0.398
				c0.476-0.539,1.83-1.793,3.533-0.925c0.098,0.05,0.126,0.21,0.064,0.347l-0.002,0.004c-0.061,0.133-0.182,0.194-0.277,0.146
				c-1.527-0.771-2.693,0.342-3.084,0.797C365.961,297.929,365.848,297.942,365.777,297.862z"/>
		</g>
		<path opacity="0.3" fill="#E87C50" d="M359.564,298.949c0.005-4.046-1.826-5.058-2.922-5.302l-1.254,2.836
			c-0.241,0.544-0.084,1.153,0.331,1.281L359.564,298.949z"/>
	</g>
</g>
<g>
	<g>
		<path fill="#B2CBEA" d="M326.362,495.269l-1.611-0.883c-1.72-0.941-2.353-3.107-1.411-4.827l7.402-13.52
			c0.942-1.719,3.107-2.353,4.828-1.411l2.307,1.264c0.337,0.185,0.461,0.608,0.276,0.945s-0.607,0.46-0.945,0.276l-2.308-1.264
			c-1.047-0.573-2.365-0.188-2.938,0.858l-7.402,13.52c-0.573,1.046-0.188,2.364,0.859,2.938l1.611,0.882
			c1.047,0.573,2.365,0.188,2.938-0.858l4.914-8.975c0.185-0.337,0.607-0.461,0.945-0.276c0.337,0.185,0.46,0.607,0.276,0.945
			l-4.914,8.974C330.248,495.577,328.082,496.21,326.362,495.269z"/>
	</g>
	<g>
		<path fill="#B2CBEA" d="M319.494,509.464l-2.888-1.581c-2.682-1.469-3.583-5.001-2.01-7.874l11.129-20.324
			c0.185-0.337,0.607-0.461,0.945-0.276c0.337,0.185,0.46,0.607,0.276,0.944l-11.129,20.325c-1.205,2.199-0.551,4.885,1.458,5.984
			l2.888,1.581c2.008,1.1,4.623,0.205,5.827-1.995l12.677-23.151c1.205-2.199,0.551-4.884-1.458-5.983
			c-0.337-0.186-0.461-0.608-0.276-0.945c0.185-0.337,0.607-0.461,0.944-0.276c2.682,1.469,3.583,5.001,2.01,7.874l-12.677,23.15
			C325.637,509.789,322.176,510.933,319.494,509.464z"/>
	</g>
</g>
<g>
	<path fill="#243862" d="M505.948,254.52c0,0,1.592,18.979-2.732,18.691c-4.322-0.289-12.859-8.643-30.088-7.283
		c-17.226,1.357-38.304,5.127-51.045-17.42c-12.739-22.547,16.295-29.035,16.295-29.035L505.948,254.52L505.948,254.52z"/>
	<polygon fill="#2B488C" points="469.327,253.131 556.131,260.27 557.936,256.406 474.715,194.977 390.648,185.154 389.034,188.609 
		469.327,253.131 	"/>
	<g>
		<path fill="#F89748" d="M528.401,318.504c-0.512-1.787-2.375-2.82-4.162-2.311c-1.787,0.512-2.82,2.375-2.309,4.162
			s2.375,2.82,4.16,2.311C527.877,322.152,528.913,320.291,528.401,318.504L528.401,318.504z"/>
		<path fill="#F89748" d="M525.506,319.438c3.482-0.27,4.297,31.41,4.297,31.41s-2.27,1.066-3.387,0.816
			c-1.115-0.252-1.686-4.529-1.686-4.529l-0.107,4.484c0,0-3.818,0.133-5.143-0.797
			C519.481,350.822,519.999,319.867,525.506,319.438L525.506,319.438z"/>
	</g>
	<polygon fill="#F89748" points="526.641,320.15 526.014,250.939 525.563,250.604 480.221,217.063 478.594,219.268 523.485,252.473 
		524.499,320.031 	"/>
</g>
<g>
	<g>
		<g>
			<path fill="#FCECDB" d="M696.611,512.923H505.913v-72.454h191.333c15.466,0,28.002,12.537,28.002,28.002v15.815
				C725.248,500.103,712.426,512.923,696.611,512.923z"/>
			<path fill="#729AD1" d="M888.834,470.279v10.899c0,5.825-1.463,11.279-4.022,15.968c-5.138,9.434-14.695,15.775-25.638,15.775
				H500.039c-2.376,0-4.302-2.062-4.302-4.601v-1.633c0-2.539,1.926-4.601,4.302-4.601h218.927c1.171-1.527,2.201-3.181,3.073-4.941
				c2.05-4.135,3.208-8.848,3.208-13.853v-13.855c0-2.548-0.307-5.021-0.886-7.374c-0.981-3.988-2.735-7.64-5.077-10.759H500.039
				c-2.376,0-4.302-2.061-4.302-4.604v-1.628c0-2.544,1.926-4.604,4.302-4.604h360.945c12.719,0,23.447,9.126,26.776,21.596
				C888.46,464.675,888.834,467.432,888.834,470.279z"/>
			<path fill="#5E8BC8" d="M887.76,462.064H724.361c-0.981-3.988-2.735-7.64-5.077-10.759H500.039c-2.376,0-4.302-2.061-4.302-4.604
				v-1.628c0-2.544,1.926-4.604,4.302-4.604h360.945C873.703,440.469,884.431,449.595,887.76,462.064z"/>
		</g>
		<polygon fill="#F4D2B8" points="505.913,476.696 532.504,477.914 505.913,478.647 		"/>
		<polygon fill="#F4D2B8" points="505.913,488.064 569.176,489.282 505.913,490.016 		"/>
	</g>
	<g>
		<g>
			<g>
				<path fill="#F89748" d="M478.047,569.127h187.2v-56.356H476.399c-14.026,0-25.396,11.37-25.396,25.396v3.918
					C451.003,557.02,463.111,569.127,478.047,569.127z"/>
				<path fill="#FCECDB" d="M656.228,569.127h213.355v-56.356h-213.94c-14.261,0-25.82,11.561-25.82,25.821v4.13
					C629.823,557.305,641.645,569.127,656.228,569.127z"/>
				<path fill="#F89748" d="M615.727,569.127h261.057c2.165,0,3.921-1.756,3.921-3.921v-0.586c0-2.166-1.756-3.921-3.921-3.921
					H615.727c-2.166,0-3.922,1.755-3.922,3.921v0.586C611.805,567.371,613.561,569.127,615.727,569.127z"/>
				<path fill="#F89748" d="M615.727,521.199h261.057c2.165,0,3.921-1.755,3.921-3.921v-0.586c0-2.166-1.756-3.922-3.921-3.922
					H615.727c-2.166,0-3.922,1.756-3.922,3.922v0.586C611.805,519.444,613.561,521.199,615.727,521.199z"/>
			</g>
			<polygon fill="#F4D2B8" points="869.583,540.949 840.515,541.896 869.583,542.467 			"/>
			<polygon fill="#F4D2B8" points="869.583,527.979 800.428,528.927 869.583,529.497 			"/>
		</g>
		<g>
			<path fill="#729AD1" d="M801.14,528.738c0,0,2.964,2.422,3.944,6.401c0.174,0.696,0.285,1.442,0.308,2.227
				c0.164,5.289,0,17.257,0,17.257l8.75-5.984l8.727,5.984v-16.221c0-3.067-0.749-6.052-2.14-8.005
				c-0.674-0.946-1.491-1.659-2.417-1.659H801.14z"/>
			<path fill="#5D8BC8" d="M801.14,528.738c0,0,2.964,2.422,3.944,6.401l17.534,0.237c0,0-0.688-5.699-4.307-6.639H801.14z"/>
		</g>
	</g>
	<g>
		<g>
			<g>
				<path fill="#FCECDB" d="M642.043,440.621H457.795v-82.8h184.919c16.351,0,29.604,13.254,29.604,29.604v22.92
					C672.319,427.066,658.764,440.621,642.043,440.621z"/>
				<path fill="#B2CBEA" d="M672.424,389.949v17.819c-0.045,7.61-3.572,14.214-8.757,17.744c-2.552,1.732-5.501,2.724-8.635,2.724
					H452.149c-2.377,0-4.305,2.303-4.305,5.142v2.103c0,2.84,1.928,5.143,4.305,5.143h350.484c10.058,0,18.943-5.971,24.313-15.11
					c3.385-5.758,5.372-12.77,5.372-20.343v-14.06c0-5.188-0.994-10.101-2.769-14.477c-4.507-11.134-14.052-18.811-25.103-18.811
					H452.149c-2.377,0-4.305,2.298-4.305,5.138v2.103c0,2.84,1.928,5.142,4.305,5.142h203.504c4.863,0,9.266,2.474,12.341,6.429
					C670.716,380.14,672.397,384.807,672.424,389.949z"/>
				<path fill="#A8C3E6" d="M447.844,433.378v2.103c0,2.84,1.928,5.143,4.305,5.143h350.484c10.058,0,18.943-5.971,24.313-15.11
					H663.667c-2.552,1.732-5.501,2.724-8.635,2.724H452.149C449.771,428.236,447.844,430.539,447.844,433.378z"/>
			</g>
			<polygon fill="#F4D2B8" points="457.795,399.222 483.803,400.613 457.795,401.452 			"/>
			<polygon fill="#F4D2B8" points="457.795,380.166 519.67,381.558 457.795,382.396 			"/>
		</g>
		<g>
			<path fill="#F89748" d="M519.034,381.281c0,0-4.083,2.626-5.436,6.941c-0.239,0.754-0.393,1.563-0.424,2.414
				c-0.225,5.734,0,18.711,0,18.711l-12.057-6.488l-12.024,6.488V391.76c0-3.326,1.032-6.562,2.947-8.68
				c0.929-1.026,2.056-1.799,3.331-1.799H519.034z"/>
			<path fill="#ED7E2A" d="M519.034,381.281c0,0-4.083,2.626-5.436,6.941l-24.16,0.257c0,0,0.947-6.18,5.934-7.198H519.034z"/>
		</g>
	</g>
</g>
<g id="girl_2_15_">
	<path fill="#EE9960" d="M211.054,433.298c0,0,37.768,16.454,44.623,16.155c6.855-0.3,49.099-12.867,49.099-12.867l-1.076,7.267
		c0,0-32.601,18.75-43.998,19.813c-11.221,1.048-49.59-10.07-53.294-12.418C202.704,448.9,200.289,435.674,211.054,433.298z"/>
	<path fill="#243862" d="M205.38,372.766c0,0-13.933-2.646-20.872,2.421c-12.57,9.18-13.245,40.826-17.956,45.54
		c-4.711,4.715-16.067,2.703-17.078,27.097c-1.011,24.393,4.521,26.433-2.067,37.321c-6.588,10.889,2.788,21.787,2.788,21.787
		s-3.84-6.011-2.194-10.35c0,0,1.599,9.575,7.682,11.819s6.983,3.89,7.954,7.182c0,0,51.896-26.592,51.952-45.453
		c0.057-18.862,10.212-37.545,5.226-45.719c0,0,2.221,3.497,2.493,7.387c0,0,2.993-5.733-2.194-11.071
		c-5.187-5.337,6.084-16.383,4.416-29.176C224.382,382.77,218.219,373.148,205.38,372.766z"/>
	<path fill="#FAB17E" d="M215.644,451.268c-3.317,2.302-7.476,4.199-12.697,5.404c-19.571,4.521-27.072-12.02-29.888-23.374
		c2.668-1.527,5.18-1.864,6.63-2.037c1.415-0.167,2.902-0.278,4.134-0.339c2.198-1.684,5.473-8.572,6.197-19.269l0.921,0.246
		l15.424,4.222c0,0-0.707,4.903-1.053,9.538c-0.268,3.626-0.31,7.092,0.377,7.94c1.204,0.261,1.926,0.432,1.926,0.432
		s0.001,0.005,0.008,0.014C207.83,434.385,212.305,441.744,215.644,451.268z"/>
	<path fill="#EE9960" d="M206.366,416.124c0,0-0.709,4.899-1.053,9.538c-8.739-0.875-12.794-9.195-14.373-13.759L206.366,416.124z"
		/>
	<path fill="#FAB17E" d="M208.975,420.727c0,0-20.742-1.144-19.831-14.051c0.912-12.905-1.151-21.745,12.13-21.561
		c13.282,0.186,15.504,5.292,16.248,9.674S214.394,420.691,208.975,420.727z"/>
	<path fill="#243862" d="M217.421,387.569c-2.924-4.111-5.405-3.434-6.845-2.364c-10.878-7.037-18.834,1.644-18.834,1.644
		c-2.05,9.16-9.108,13.985-9.108,13.985s3.609,2.604,12.475,0.989c2.708-0.492,5.218-2.212,7.4-4.359
		c-3.947,5.652-9.047,9.563-9.047,9.563c10.744-4.062,15.957-18.224,16.482-19.724c1.183,1.227,3.499,3.872,4.086,6.345
		c0.797,3.361,4.235,8.614,6.224,8.525C220.254,402.174,221.806,393.735,217.421,387.569z"/>
	<path fill="#F9DDBF" d="M167.15,493.439c-1.873-9.575-7.98-47.832-1.873-60.143c2.193-4.422,10.8-4.821,20.243-4.434
		c2.938,1.897,14.135,9.066,18.735,8.172c0.049-0.01,0.139-0.031,0.257-0.061c2.166-0.542,2.983-2.063,1.177-3.375
		c-0.004-0.003,4.677-0.451,10.485,0.643c3.281,0.617,12.129,5.195,12.129,5.195s-4.456,8.05-11.026,10.829
		c1.117,9.994-0.544,14.403-10.913,37.488c-8.762,19.513,1.182,37.08,1.182,37.08s-51.576,41.468-51.863,20.354
		C155.468,529.294,169.544,505.679,167.15,493.439z"/>
	<path fill="#DD6E27" d="M210.104,569.926c2.805-0.316,5.33-1.852,6.898-4.199c0.249-0.372,0.515-0.773,0.797-1.201
		c5.871-8.887,8.155-36.104,21.361-65.1c3.216-7.06,14.762-8.329,17.91-16.31c0,0,7.749-25.864-14.832-26.628
		c-22.58-0.763-60.473,71.968-61.071,79.596C180.587,543.473,166.238,574.875,210.104,569.926z"/>
	<path fill="#243862" d="M299.85,569.331h-32.139c0,0-1.202-5.126,0.909-8.614c1.868-3.086,1.152-4.844-0.231-7.397
		c1.456,0.596,3.339,1.138,5.413,1.02c1.602-0.093,3.295-0.819,4.78-1.682c1.383,1.577,7.306,8.29,9.157,9.62
		C289.838,563.786,299.203,563.248,299.85,569.331z"/>
	<path fill="#ED7E2A" d="M257.804,463.966c1.936,14.508,9.493,60.301,22.824,82.642c4.298,7.203-10.829,11.24-10.91,11.219
		c-2.029-0.53-5.409-3.765-6.966-5.169c-10.823-9.754-32.793-37.373-32.793-59.517c0-10.797-0.189-31.417,7.662-36.658
		C242.455,453.255,257.036,458.203,257.804,463.966z"/>
	<path fill="#F89748" d="M190.939,569.332c0,0,1.191-1.658,3.268-4.807c2.472-3.743,5.207-11.11,8.525-20.554
		c3.486-9.914,7.622-22.11,12.79-34.801c1.595-3.917,3.289-7.882,5.09-11.841c3.216-7.059,12.065-6.083,15.213-14.064
		c0,0,12.284-27.663-10.296-28.427c-22.58-0.763-65.487,74.004-67.953,81.245C154.875,544.011,141.707,576.926,190.939,569.332z"/>
	<path fill="#2B488C" d="M276.258,569.331h-32.139c0,0-1.201-5.126,0.909-8.614c1.868-3.086,1.152-4.844-0.231-7.397
		c1.456,0.596,3.339,1.138,5.413,1.02c1.601-0.093,3.294-0.819,4.779-1.682c1.383,1.577,7.306,8.29,9.157,9.62
		C266.246,563.786,275.611,563.248,276.258,569.331z"/>
	<path fill="#ED7E2A" d="M202.732,543.972c3.486-9.914,7.622-22.11,12.79-34.801c-1.35-9.614-4.261-18.026-9.157-21.416
		C206.365,487.755,194.488,524.548,202.732,543.972z"/>
	<path fill="#F89748" d="M239.044,462.938c1.935,14.508,4.661,61.329,17.992,83.67c4.298,7.203-10.829,11.24-10.91,11.219
		c-2.029-0.53-5.409-3.765-6.966-5.169c-10.823-9.754-32.793-37.373-32.793-59.517c0-10.797,12.67-30.551,20.521-35.792
		C231.723,454.121,238.275,457.175,239.044,462.938z"/>
	<path fill="#FFFFFF" d="M212.858,413.305c0,0-1.961-0.775-7.479-0.328c0,0,0.293,2.152,4.362,2.365
		C212.047,415.462,212.858,413.305,212.858,413.305z"/>
	<g>
		<g>
			<polygon fill="#183660" points="308.807,421.384 302.144,409.362 287.73,449.583 296.234,458.713 			"/>
			<polygon fill="#1C478A" points="274.016,428.425 260.618,466.702 296.234,458.713 308.807,421.384 			"/>
			<polygon fill="#EFDECE" points="261.328,464.771 260.704,463.68 273.382,427.457 274.016,428.425 			"/>
			<polygon fill="#FCECDB" points="273.382,427.457 307.149,420.886 308.807,421.384 274.016,428.425 			"/>
		</g>
		<polygon fill="#EFDECE" points="308.807,421.384 301.603,409.946 297.009,422.858 307.149,420.886 		"/>
	</g>
	<path fill="#FAB17E" d="M284.3,433.968c-1.158-0.223-3.643-1.16-6.159-1.852c0.751-0.583,1.587-1.3,1.82-2.035
		c0.449-1.418,0.748-1.874-0.748-1.425s-6.731,2.85-6.731,2.85s0.011,0.006,0.014,0.007c-2.975,0.869-5.715,5.073-5.715,5.073
		s-36.823,12.943-41.253,13.166c-6.854,0.345-52.469-16.454-52.469-16.454c-10.766,2.376-8.35,15.603-4.646,17.95
		s36.528,14.288,55.98,14.513c9.853,0.114,45.693-22.921,45.693-22.921s4.189-1.915,7.481-1.316c3.292,0.598,10.922,0,12.567-2.693
		C291.781,436.137,286.245,434.342,284.3,433.968z"/>
	<path fill="#F9DDBF" d="M196.56,441.582c0,0-4.08,12.915-18.091,15.854c0,0-23.138-7.129-11.618-22.892
		C166.851,434.545,178.242,426.081,196.56,441.582z"/>
	<path fill="#FAB17E" d="M308.208,434.94l-0.002,0.003c0.009-0.358-0.027-0.711-0.123-1.051c0,0-3.301-5.221-4.382-5.434
		c-3.292-0.65-3.292,3.685-2.594,6.481c0.486,1.947,1.724,3.817,2.725,4.827h0l-0.131,4.085
		C309.263,440.797,308.208,434.94,308.208,434.94z"/>
</g>
<g>
	<path fill="#EBF3FB" d="M114.889,366.768c1.315-32.554-25.97-47.018-53.87-47.018c-27.899,0-58.26,7.229-60.891,50.517
		c-1.692,27.848,13.153,44.983,55.9,44.983c14.417,0,25.622-2.274,34.203-6.329l21.369,18.987l-10.5-26.245
		C110.402,393.015,114.321,380.815,114.889,366.768z"/>
	<g>
		<path fill="#97B3DE" d="M39.822,355.883v7.605h4.974v-7.605h2.026v17.736h-2.026v-8.289h-4.974v8.289h-2.026v-17.736H39.822z"/>
		<path fill="#97B3DE" d="M51.139,367.435c0,3.922,1.552,4.737,3,4.737c0.895,0,1.605-0.211,2.105-0.474l0.342,1.474
			c-0.71,0.368-1.789,0.604-2.815,0.604c-3.053,0-4.631-2.499-4.631-6.394c0-4.105,1.763-6.685,4.315-6.685
			c2.579,0,3.631,2.737,3.631,5.579c0,0.5-0.026,0.842-0.052,1.157H51.139z M55.139,365.936c0.026-2.526-0.921-3.658-1.895-3.658
			c-1.342,0-2,1.921-2.079,3.658H55.139z"/>
		<path fill="#97B3DE" d="M59.27,355.409h2.026v18.21H59.27V355.409z"/>
		<path fill="#97B3DE" d="M64.296,355.409h2.026v18.21h-2.026V355.409z"/>
		<path fill="#97B3DE" d="M77.138,367.251c0,4.921-2.263,6.579-4.236,6.579c-2.29,0-4.132-2.079-4.132-6.553
			c0-4.632,2.079-6.579,4.263-6.579C75.323,360.698,77.138,362.83,77.138,367.251z M70.796,367.251c0,2.105,0.369,4.974,2.21,4.974
			c1.737,0,2.105-2.974,2.105-4.974c0-1.947-0.369-4.947-2.158-4.947C71.139,362.304,70.796,365.304,70.796,367.251z"/>
	</g>
</g>
<g>
	<path fill="#97B3DE" d="M673.727,269.067c1.202-29.761-23.742-42.982-49.248-42.982s-53.263,6.608-55.668,46.182
		c-1.547,25.459,12.025,41.125,51.105,41.125c13.18,0,23.424-2.079,31.27-5.786l19.535,17.358l-9.601-23.993
		C669.625,293.063,673.208,281.91,673.727,269.067z"/>
	<g>
		<path fill="#FFFFFF" d="M594.941,263.904c0.713-0.178,1.536-0.289,2.493-0.289c1.358,0,2.516,0.289,3.316,1.046
			c0.646,0.602,0.98,1.491,0.98,2.56c0,1.536-0.847,2.738-2.315,3.317v0.066c1.736,0.468,2.782,1.87,2.782,3.829
			c0,1.246-0.4,2.248-1.068,2.983c-0.846,0.957-2.248,1.357-3.962,1.357c-1.091,0-1.759-0.067-2.227-0.155V263.904z
			 M596.633,270.049h0.778c1.403,0,2.604-1.069,2.604-2.649c0-1.38-0.645-2.448-2.471-2.448c-0.4,0-0.712,0.044-0.912,0.111V270.049
			z M596.633,277.327c0.2,0.045,0.489,0.09,0.868,0.09c1.759,0,2.916-1.047,2.916-2.983c0-2.07-1.425-3.05-3.027-3.072h-0.757
			V277.327z"/>
		<path fill="#FFFFFF" d="M610.835,273.298c0,4.163-1.915,5.565-3.584,5.565c-1.937,0-3.495-1.759-3.495-5.543
			c0-3.917,1.759-5.564,3.605-5.564C609.299,267.756,610.835,269.559,610.835,273.298z M605.47,273.298
			c0,1.781,0.312,4.208,1.87,4.208c1.469,0,1.78-2.516,1.78-4.208c0-1.646-0.312-4.185-1.825-4.185
			C605.76,269.113,605.47,271.651,605.47,273.298z"/>
		<path fill="#FFFFFF" d="M612.75,270.693c0-1.269-0.066-1.914-0.089-2.782h1.492l0.089,1.313h0.044
			c0.468-0.868,1.336-1.469,2.472-1.469c1.491,0,2.604,1.091,2.604,3.694v7.235h-1.715v-6.923c0-1.291-0.245-2.561-1.491-2.561
			c-0.713,0-1.402,0.602-1.603,1.736c-0.067,0.268-0.089,0.602-0.089,0.979v6.768h-1.715V270.693z"/>
		<path fill="#FFFFFF" d="M619.941,281.779c0.489-0.133,1.091-0.312,1.446-0.846c0.379-0.579,0.512-1.38,0.512-3.428v-9.595h1.715
			v10.084c0,2.271-0.334,3.316-1.091,4.118c-0.646,0.668-1.692,1.002-2.36,1.023L619.941,281.779z M623.77,265.129
			c0,0.668-0.401,1.113-1.024,1.113c-0.579,0-1.002-0.445-1.002-1.113s0.445-1.113,1.023-1.113
			C623.369,264.016,623.77,264.461,623.77,265.129z"/>
		<path fill="#FFFFFF" d="M632.562,273.298c0,4.163-1.915,5.565-3.584,5.565c-1.937,0-3.495-1.759-3.495-5.543
			c0-3.917,1.759-5.564,3.606-5.564C631.026,267.756,632.562,269.559,632.562,273.298z M627.198,273.298
			c0,1.781,0.311,4.208,1.869,4.208c1.47,0,1.781-2.516,1.781-4.208c0-1.646-0.312-4.185-1.825-4.185
			C627.487,269.113,627.198,271.651,627.198,273.298z"/>
		<path fill="#FFFFFF" d="M640.932,275.747c0,1.18,0.066,2.137,0.089,2.938h-1.491l-0.134-1.136h-0.044
			c-0.313,0.534-1.136,1.313-2.293,1.313c-1.87,0-2.627-1.469-2.627-4.141v-6.812h1.714v6.567c0,1.691,0.268,2.938,1.447,2.938
			c1.002,0,1.446-0.936,1.536-1.425c0.066-0.29,0.089-0.624,0.089-0.979v-7.102h1.714V275.747z"/>
		<path fill="#FFFFFF" d="M643.315,270.693c0-0.912-0.067-1.98-0.089-2.782h1.535l0.089,1.714h0.045
			c0.356-1.023,1.269-1.869,2.271-1.869c0.134,0,0.245,0,0.356,0.021v1.736c-0.111,0-0.223,0-0.356,0
			c-1.091,0-1.892,1.002-2.07,2.227c-0.045,0.289-0.066,0.623-0.066,0.979v5.966h-1.714V270.693z"/>
	</g>
</g>
<g>
	<path fill="#243862" d="M665.789,426.094c6.053,10.709,13.73,14.88,13.73,14.88l32.063,0.226
		C711.583,441.199,661.171,417.926,665.789,426.094z"/>
	<g>
		<path fill="#FAB17E" d="M689.833,508.784c0.828,0.963,0.928,2.034,0.506,3.174c-0.001,0.005-0.004,0.012-0.009,0.016
			c-0.779,2.107-3.322,4.45-6.273,6.786c-0.377,0.3-0.713,0.572-1.005,0.825c-0.077,0.066-0.154,0.133-0.227,0.2
			c-0.06,0.052-0.116,0.105-0.174,0.154c-2.754,2.503-1.729,3.089-6.681,8.173c-5.647,5.794-9.508,5.871-10.603,5.332
			c-0.926-0.46,0.984-3.54,3.1-7.002c0.103-0.167,0.203-0.336,0.308-0.505c0.282-0.46,0.563-0.928,0.842-1.391
			c2.48-4.167,1.865-6.135,1.328-12.367c-0.437-5.064-7.674-28.329-7.674-28.329l10.756-1.774c0,0,3.105,18.507,6.649,21.379
			c1.896,1.53,4.029,1.564,5.854,2.702c0.129,0.079,0.256,0.16,0.379,0.243C687.946,507.099,689,507.817,689.833,508.784z"/>
		<path fill="#243862" d="M689.833,508.784c0.828,0.963,0.928,2.034,0.506,3.174c-0.001,0.005-0.004,0.012-0.009,0.016
			c-0.951,2.104-3.431,4.435-6.284,6.765c-0.372,0.305-0.702,0.585-0.994,0.847c-0.077,0.066-0.154,0.133-0.227,0.2
			c-0.06,0.052-0.116,0.105-0.174,0.154c-2.754,2.503-1.729,3.089-6.681,8.173c-5.647,5.794-9.508,5.871-10.603,5.332
			c-0.926-0.46,0.984-3.54,3.1-7.002c1.094-0.392,6.178-2.415,10.045-7.293c3.406-4.284,5.696-9.803,8.018-12.992
			c0.129,0.079,0.256,0.16,0.379,0.243C687.946,507.099,689,507.817,689.833,508.784z"/>
		<path fill="#FAB17E" d="M603.251,501.463c-0.687,3.312-5.409,2.725-10.682,1.396c-5.272-1.327-4.027,0.216-11.538-0.67
			c-7.51-0.885-9.768-3.703-9.988-4.822c-0.199-0.993,3.518-1.316,7.504-1.747c0.502-0.053,1.006-0.111,1.509-0.17
			c4.502-0.532,7.816-3.411,11.918-5.767c3.886-2.23,9.726-11.388,9.726-11.388l10.302,0.89c0,0-5.467,8.177-7.584,11.734
			c-1.246,2.092-1.2,4.871-1.062,7.018C603.427,499.104,603.496,500.296,603.251,501.463z"/>
		<path fill="#243862" d="M592.57,502.859c-5.272-1.327-4.027,0.216-11.538-0.67c-7.51-0.885-9.768-3.703-9.988-4.822
			c-0.199-0.993,3.518-1.316,7.504-1.747l0.037,0.076c0,0,4.485,3.228,10.74,3.422c5.099,0.16,10.511-1.263,14.031-1.181
			c0.071,1.166,0.14,2.358-0.104,3.525C602.565,504.774,597.842,504.188,592.57,502.859z"/>
		<path fill="#243862" d="M643.219,435.831l9.453,25.997l12.341,33.944c0,0,3.412,0.354,6.688-0.563
			c3.017-0.849,6.486-3.101,6.486-3.101s-3.237-36.376-9.605-57.29c-1.633-5.367-3.474-9.714-5.521-12.167
			C653.042,410.643,643.219,435.831,643.219,435.831z"/>
		<path fill="#2B488C" d="M653.307,394.721c6.327-1.991,24.313,0.75,42.376,4.418l3.831-6.219l39.088-2.775
			c0,0,12.689,28.679,5.504,46.845c-1.057,2.67-3.633,3.781-7.146,3.813c-0.001,0.002-0.003,0.004-0.004,0.005
			c0,0-23.315,0.405-30.866,0.352c-19.429-0.137-41.022-13.645-43.825-14.226c-4.585-0.951-6.487,8.221-11.147,17.832
			c-4.66,9.612-43.47,42.405-43.47,42.405s-5.93,0.017-8.372-0.919c-2.627-1.007-3.581-2.296-3.581-2.296
			S639.038,399.213,653.307,394.721z"/>
		<path fill="#243862" d="M700.123,339.121c13.857,7.757,41.968,23.836,42.115,23.734c0,0,10.345,3.982,16.258,0.115
			c9.854-6.445,15.238-23.938-2.593-39.152c-8.894-7.587-15.236-9.464-16.117-21.484c-0.478-6.521-9.236-28.096-24.054-26.211
			c-1.238,0.157-2.485,0.268-3.733,0.219c-1.729-0.068-4.584,0.164-7.525,1.887C696.06,283.157,679.289,336.009,700.123,339.121z"/>
		<path fill="#FAB17E" d="M711.829,332.683c-0.062,0.039,6.828,2.446,11.461,0.433c4.357-1.889,7.699-9.013,7.634-9.017
			c-1.976-0.105-4.133-1.849-5.724-13.197l-0.844,0.296l-14.185,4.991c0,0,0.993,4.548,1.626,8.875
			C712.331,328.696,712.605,332.175,711.829,332.683z"/>
		<path fill="#EE985E" d="M710.171,316.188c0,0,0.604,3.188,1.444,7.741c8.137-1.405,11.565-8.347,12.74-12.732L710.171,316.188z"/>
		<path fill="#FAB17E" d="M708.033,320.68c0,0,19.376-2.461,17.657-14.504c-1.719-12.044-0.375-20.472-12.819-19.409
			c-12.443,1.063-14.187,6-14.59,10.159C697.876,301.085,702.948,321.01,708.033,320.68z"/>
		<path fill="#243862" d="M699.033,290.337c0,0,12.316,10.767,20.739,11.687c8.424,0.921,11.634-1.763,11.634-1.763
			s-4.939-4.16-7.883-10.839c-0.867-1.969-2.72-3.328-4.861-3.528C712.647,285.332,701.239,285.015,699.033,290.337z"/>
		<path fill="#243862" d="M706.786,289.435c0,0-4.174,3.979-5.5,6.943c-1.28,2.86-1.707,9.719-0.723,12.451
			c0,0-6.371-12.604-2.671-18.681C701.815,283.705,706.786,289.435,706.786,289.435z"/>
		<path fill="#F9DDBF" d="M695.327,361.084c0.31,39.189-0.058,30.998,4.202,34.747c1.027,0.902,3.927,1.456,7.746,1.735
			c12.011,0.883,33.146-0.947,33.966-3.163c2.825-7.663,0.885-10.064,3.28-21.811c0.25-1.25,0.559-2.602,0.919-4.074
			c1.984-8.065,3.881-10.801-2.867-23.829c-6.12-11.801-12.497-21.389-13.079-21.049c-16.434,9.6-17.695,1.425-17.695,1.425
			S695.175,341.969,695.327,361.084z"/>
		<path fill="#2B488C" d="M652.672,461.828l12.341,33.944c0,0,3.412,0.354,6.688-0.563c3.017-0.849,6.486-3.101,6.486-3.101
			s-3.237-36.376-9.605-57.29L652.672,461.828z"/>
		<path fill="#F9DDBF" d="M711.797,325.063c0,0-16.859,2.736-18.888,9.972c-2.028,7.236-13.966,49.776-13.966,49.776
			s8.55,1.599,12.532-2.328s14.02-36.593,14.02-36.593L711.797,325.063z"/>
		<path fill="#F2CCAA" d="M707.275,397.566c12.011,0.883,33.146-0.947,33.966-3.163c2.825-7.663,0.885-10.064,3.28-21.811
			l-5.68-16.36c0,0,0.83,18.179-4.563,22.921c-5.387,4.742-22.007,9.072-24.641,13.048
			C708.367,394.108,707.527,396.025,707.275,397.566z"/>
		<path fill="#FAB17E" d="M721.096,390.021c0,0-11.836-2.723-13.756-1.685c-1.92,1.039-6.622,4.837-7.217,6.166
			s4.266-0.982,5.845-1.394c1.021-0.267,3.701,0.686,5.027,1.139c5.581,1.904,9.017,0.969,9.017,0.969L721.096,390.021z"/>
		<path fill="#F9DDBF" d="M729.504,323.633c0,0,15.909,1.093,21.365,8.816c7.681,10.873,22.741,57.086,13.88,63.173
			c-9.979,6.854-45.21,1.493-45.21,1.493s-1.136-5.494,0.517-8.136c1.651-2.643,28.217-6.741,29.45-7.958
			c1.233-1.216-15.14-23.989-15.114-27.663C734.418,349.684,729.504,323.633,729.504,323.633z"/>
		<path fill="#FAB17E" d="M706.744,391.632c0,0-2.507,3.187-3.323,3.563c-0.817,0.377-1.343,0.277-1.343,0.277l1.695-3
			L706.744,391.632z"/>
		<path fill="#FAB17E" d="M707.34,388.336l-7.246,3.456c0,0,0.304,0.505,1.193,0.471s3.138-0.839,3.138-0.839L707.34,388.336z"/>
	</g>
	<g>
		<g>
			<polygon fill="#F89748" points="704.965,400.366 647.842,399.963 630.959,357.11 687.995,357.513 			"/>
			<polygon fill="#ED7E2A" points="647.184,398.293 722.616,398.825 722.604,400.49 647.842,399.963 			"/>
		</g>
		<path fill="#FFFFFF" d="M662.413,378.699c-0.42-1.506,0.457-2.717,1.959-2.706c1.502,0.01,3.061,1.239,3.48,2.744
			s-0.457,2.717-1.959,2.706S662.833,380.204,662.413,378.699z"/>
	</g>
</g>
<g>
	
		<rect x="427.336" y="465.696" transform="matrix(1.980821e-004 -1 1 1.980821e-004 -107.977 996.9538)" fill="#C75548" width="34.503" height="173.56"/>
	<path fill="#FCECDB" d="M357.803,569.712L332.294,558.8l-14.836-6.347l15.186-6.49l25.168-10.755c0,0,3.359,8.401,3.409,16.301
		C361.299,563.908,357.803,569.712,357.803,569.712z"/>
	<path fill="#FCECDB" d="M551.545,546.691l-0.002,10.908c-0.001,6.709-5.441,12.147-12.151,12.146l-8.028-0.002l0.007-34.503
		l8.731,0.002C546.423,535.244,551.547,540.37,551.545,546.691z"/>
	<path fill="#2B488C" d="M332.644,545.963c0.632,3.486,1.181,8.828-0.35,12.837l-14.836-6.347L332.644,545.963z"/>
</g>
<g>
	<path fill="#F89748" d="M395.119,355.561c0,0,3.109,13.49,12.172,13.49c7.768,0,18.423-17.559,18.423-17.559L395.119,355.561z"/>
	<path fill="#2B488C" d="M499.161,554.801l-5.822,4.003c0,0-28.001-29.846-34.761-58.454c-1.205-5.108-1.694-10.146-1.177-14.926
		c0,0-0.409-1.296-1.124-3.587c-0.031-0.101-0.063-0.203-0.095-0.306c-0.313-1.006-0.688-2.188-1.105-3.526
		c-1.357-4.323-3.222-10.239-5.347-16.975c-4.894-15.499-16.087-50.455-20.87-64.995l34.376-12.438c0,0,3.905,8.904,9.515,33.105
		c0.864,3.158,1.73,6.651,2.539,10.457c0.917,4.311,1.771,9.023,2.484,14.116c1.206,8.626,2.011,18.331,2.061,28.977
		c0.019,4.33-0.087,8.821-0.344,13.454c-0.188,3.396,0.316,7.924,1.264,13.074C485.084,520.326,499.161,554.801,499.161,554.801z"/>
	<path fill="#243862" d="M517.475,569.184h-27.793c0,0-1.038-4.433,0.786-7.449c1.615-2.669,0.996-4.189-0.2-6.397
		c1.259,0.516,2.888,0.984,4.681,0.882c1.385-0.08,2.85-0.709,4.134-1.454c1.195,1.364,6.317,7.169,7.918,8.318
		C508.817,564.389,516.916,563.923,517.475,569.184z"/>
	<path fill="#243862" d="M477.773,441.276l-21.592,40.255c-0.313-1.006-0.688-2.188-1.105-3.526
		c-1.357-4.323-3.222-10.239-5.347-16.975c-4.894-15.499-16.087-50.455-20.87-64.995l34.376-12.438c0,0,3.905,8.904,9.515,33.105
		c0.864,3.158,1.73,6.651,2.539,10.457C476.206,431.471,477.06,436.184,477.773,441.276z"/>
	<path fill="#243862" d="M428.299,560.484c0,0-1.924,4.719-0.112,8.699h15.117c0,0,0.314-3.59-5.172-7.751
		C433.977,558.281,428.299,560.484,428.299,560.484z"/>
	<path fill="#2E3B65" d="M444.75,253.193c0.009-0.752,0.396-8.866,12.725-9.587c0,0-6.05,0.869-7.035,3.562
		c0,0,4.052-3.396,7.442-2.416c3.39,0.979,5.508,6.825,5.574,8.765c0.067,1.938-1.652,8.232-3.774,8.815
		c-0.804,0.221-1.736,0.189-2.586,0.065c0.589,0.873,1.17,1.839,1.729,2.919c5.167,9.987,0.709,21.753-3.485,20.762
		c-2.69-0.636-4.325,4.026-4.325,4.026l-25.871-22.247C425.144,267.857,434.208,247.89,444.75,253.193z"/>
	<path fill="#FAB17E" d="M428.488,320.795c2.868,1.989,6.465,3.631,10.98,4.673c16.924,3.91,23.411-10.395,25.846-20.214
		c-2.308-1.32-4.479-1.611-5.734-1.761c-1.223-0.145-2.51-0.24-3.575-0.293c-1.9-1.456-4.732-7.413-5.358-16.663l-0.796,0.213
		l-13.338,3.651c0,0,0.611,4.24,0.911,8.247c0.231,3.137,0.268,6.134-0.326,6.867c-1.041,0.226-1.666,0.373-1.666,0.373
		s0,0.004-0.007,0.013C435.245,306.194,431.375,312.559,428.488,320.795z"/>
	<path fill="#EE9960" d="M436.511,290.403c0,0,0.613,4.237,0.91,8.248c7.557-0.757,11.064-7.951,12.429-11.897L436.511,290.403z"/>
	<path fill="#FAB17E" d="M436.356,296.768c0,0,17.398-4.472,14.448-15.264c-2.951-10.792-2.693-18.638-13.927-16.239
		s-12.257,7.104-12.148,10.946S431.754,297.652,436.356,296.768z"/>
	<path fill="#2E3B65" d="M423.597,270.07c1.786-3.98,4.005-3.824,5.407-3.16c8.038-7.804,16.251-1.784,16.251-1.784
		c3.285,7.423,10.085,10.324,10.085,10.324s-2.622,2.817-10.413,2.944c-2.38,0.039-4.799-0.996-7.012-2.449
		c4.301,4.129,9.287,6.584,9.287,6.584c-9.797-1.631-16.608-12.763-17.307-13.945c-0.797,1.239-2.314,3.874-2.395,6.07
		c-0.109,2.984,1.056,8.747-0.646,9.008C426.854,283.662,420.918,276.04,423.597,270.07z"/>
	<path fill="#FAB17E" d="M431.352,304.991c0,0,29.22-7.095,41.927,3.385l-6.35,88.556l-57.147-13.807c0,0,1.607-5.604,12.566-20.504
		S428.539,325.864,431.352,304.991z"/>
	<path fill="#2B488C" d="M448.387,387.073c0,0-0.034,0.301-0.093,0.872c-0.026,0.246-0.06,0.544-0.096,0.891
		c-0.246,2.295-0.711,6.699-1.312,12.426c-1.568,15.019-4.029,39.141-5.706,58.181c-1.312,14.886-2.145,26.668-1.695,28.56
		c1.353,5.692,0,73.747,0,73.747c-4.857,2.329-12.222,0-12.222,0s-12.938-61.326-11.126-69.851c1.811-8.523-1.211-15.8-1.211-15.8
		c-10.045-46.782-8.945-72.71-6.95-85.123c0.58-3.609,1.237-6.075,1.718-7.579c0.406-1.278,0.688-1.863,0.688-1.863
		C432.54,375.571,448.387,387.073,448.387,387.073z"/>
	<path fill="#F89748" d="M477.218,333.634c-1.41,10.653-7.054,23.689-9.07,30.707c0,0,3.37,24.363,0.153,31.052
		c-0.365,0.764-0.818,1.297-1.372,1.537c-11.916,5.191-58.323,0.15-60.282-14.819c-0.711-5.439,17.676-24.572,18.748-26.894
		c0.445-0.96,0.918-4.072-1.237-10.523c-3.056,9.422-19.922,6.712-19.922,6.712c1.979-3.387,6.912-26.82,12.418-37.398
		c4.141-7.952,15.195-9.104,15.195-9.104s4.601,7.297,15.728,6.262s13.162-7.846,13.162-7.846s9.869,1.313,12.909,3.766
		C474.174,307.51,479.069,319.676,477.218,333.634z"/>
	<path fill="#ED7E2A" d="M468.148,364.341c0,0,3.37,24.363,0.153,31.052c-8.682-4.357-15.524-16.146-13.944-29.277
		c1.167-9.708,2.902-11.922,8.096-17.477c3.816-4.081,12.639-4.312,11.947-2.37C472.342,352.052,469.213,360.635,468.148,364.341z"
		/>
	<g>
		<polygon fill="#1C478A" points="431.908,335.531 451.806,367.453 417.95,367.453 398.992,336.222 		"/>
		<polygon fill="#EFDECE" points="450.771,365.85 451.114,364.734 432.286,334.525 431.908,335.531 		"/>
		<polygon fill="#FCECDB" points="432.286,334.525 400.392,335.435 398.992,336.222 431.908,335.531 		"/>
		<polygon fill="#183660" points="398.992,336.222 381.099,326.537 401.956,359.289 417.95,367.453 		"/>
	</g>
	<path fill="#FAB17E" d="M493.675,358.591c-1.916,0.876-6.835,6.671-8.591,7.259c-7.895,2.642-41.493-4.388-41.493-4.388l1.04-5.885
		c0,0,32.977,0.876,36.602-0.094c0.684-0.185,4.247-5.758,5.617-6.559L493.675,358.591z"/>
	<path fill="#FAB17E" d="M444.633,355.576c0,0-3.977-3.236-6.664-2.505c-2.687,0.732-6.641,4.131-8.109,4.936
		c-1.468,0.805-5.457,3.683-3.435,5.423s8.315,0.246,10.809-1.088s6.359-0.879,6.359-0.879L444.633,355.576z"/>
	<path fill="#FAB17E" d="M438.731,352.966c0,0-4.833-0.576-6.153-0.55s-0.961,0.316-0.233,1.34c0.728,1.024,3.246,1.416,3.361,1.774
		S438.731,352.966,438.731,352.966z"/>
	<path fill="#F89748" d="M460.738,303.319c0,0,14.333,1.7,18.278,7.846c4.99,7.771,16.766,38.721,16.386,46.52
		c0,0-8.609,14.652-38.132,12.308c0,0-3.072-10.85,3.138-14.432c0,0,15.164-2.696,16.911-4.234l-12.364-22.468L460.738,303.319z"/>
	<path fill="#FAB17E" d="M403.576,347.891c-0.444-1.806-4.382-0.678-5.709,0.361c-0.322,0.252-0.669,0.683-1.009,1.186
		c-0.042-0.302-0.077-0.591-0.097-0.816c-0.075-0.849-1.063-2.367-1.308-1.23c-0.245,1.138-0.649,5.917-0.649,5.917
		c-0.048,3.851,2.427,5.438,4.017,4.186S404.021,349.695,403.576,347.891z"/>
</g>
<path fill="#2F3652" d="M929.647,572.259H26.922c-0.64,0-1.163-0.523-1.163-1.163v-0.762c0-0.64,0.523-1.163,1.163-1.163h902.725
	c0.64,0,1.163,0.523,1.163,1.163v0.762C930.81,571.735,930.287,572.259,929.647,572.259z"/>
</svg>
